# xmcd
# 
# Track frame offsets:
#     150
#     18437
#     36400
#     63425
#     75012
#     97035
#     117400
#     135337
#     152812
#     167537
#     194325
# 
# Disc length: 2977
# 
# Revision: 1
# Processed by: cddbd v1.5.2PL0 Copyright (c) Steve Scherf et al.
# Submitted via: BonkEnc v1.0.8
# 
DISCID=840b9f0b
DTITLE=RED GIANT - DEVIL CHILD BLUES
DYEAR=2004
DGENRE=Stoner Rock
TTITLE0=White Mom
TTITLE1=Jetpack
TTITLE2=Devil Child Blues
TTITLE3=Hoping for the Golden BB
TTITLE4=I Breathe Fire
TTITLE5=How Ya Doin' On That Time Machine
TTITLE6=John L Sullivan
TTITLE7=Go It Alone
TTITLE8=Drip
TTITLE9=Millennium Falcon
TTITLE10=Funhouse
EXTD=
EXTT0=
EXTT1=
EXTT2=
EXTT3=
EXTT4=
EXTT5=
EXTT6=
EXTT7=
EXTT8=
EXTT9=
EXTT10=
PLAYORDER=
